<svg width="52" height="52" viewBox="0 0 52 52" fill="none" xmlns="http://www.w3.org/2000/svg">
<path d="M45.5 23.8333V19.5H41.1667V15.1667C41.1632 14.0185 40.7056 12.9182 39.8937 12.1063C39.0818 11.2944 37.9816 10.8368 36.8333 10.8333H32.5V6.5H28.1667V10.8333H23.8333V6.5H19.5V10.8333H15.1667C14.0185 10.8368 12.9182 11.2944 12.1063 12.1063C11.2944 12.9182 10.8368 14.0185 10.8333 15.1667V19.5H6.5V23.8333H10.8333V28.1667H6.5V32.5H10.8333V36.8333C10.8368 37.9816 11.2944 39.0818 12.1063 39.8937C12.9182 40.7056 14.0185 41.1632 15.1667 41.1667H19.5V45.5H23.8333V41.1667H28.1667V45.5H32.5V41.1667H36.8333C37.9816 41.1632 39.0818 40.7056 39.8937 39.8937C40.7056 39.0818 41.1632 37.9816 41.1667 36.8333V32.5H45.5V28.1667H41.1667V23.8333H45.5ZM36.8333 36.8333H15.1667V15.1667H36.8333V36.8333Z" fill="#EDEDED"/>
<path d="M24.6156 17.3333H21.7014L17.3464 34.6666H19.5716L20.5769 30.6041H25.5949L26.5743 34.6666H28.8753L24.6156 17.3333ZM20.8694 28.8686L23.0751 19.3916H23.1748L25.3046 28.8686H20.8694ZM30.8621 17.3333H33.0288V34.6666H30.8621V17.3333Z" fill="#EDEDED"/>
</svg>
