<svg width="115" height="109" viewBox="0 0 115 109" fill="none" xmlns="http://www.w3.org/2000/svg">
<path d="M69.1638 102.284C91.6528 100.795 109.562 82.6274 111.035 59.8213C111.32 55.36 111.32 50.7375 111.035 46.2763C109.562 23.4755 91.6528 5.31877 69.1638 3.81915C61.3964 3.30727 53.6037 3.30727 45.8363 3.81915C23.3473 5.3134 5.43776 23.4755 3.96501 46.2816C3.68028 50.7922 3.68028 55.3161 3.96501 59.8266C4.50251 68.131 8.17364 75.8226 12.5005 82.3156C15.0106 86.8575 13.3551 92.5281 10.7375 97.4893C8.85626 101.064 7.91026 102.848 8.66814 104.138C9.42064 105.428 11.1138 105.471 14.4946 105.552C21.1865 105.713 25.6961 103.821 29.2759 101.182C31.3023 99.6823 32.3181 98.9351 33.0169 98.8491C33.7156 98.7631 35.097 99.3329 37.849 100.462C40.3215 101.483 43.1971 102.112 45.8309 102.289C53.4903 102.794 61.4936 102.794 69.1691 102.289" stroke="white" stroke-width="6.5" stroke-linecap="round" stroke-linejoin="round"/>
<path d="M33.3125 70.625L43.2133 40.9227C43.4618 40.1815 43.9369 39.5371 44.5715 39.0805C45.2062 38.6239 45.9682 38.3783 46.75 38.3783C47.5318 38.3783 48.2938 38.6239 48.9285 39.0805C49.5631 39.5371 50.0382 40.1815 50.2867 40.9227L60.1875 70.625M76.3125 38.375V70.625M38.6875 59.875H54.8125" stroke="white" stroke-width="6.5" stroke-linecap="round" stroke-linejoin="round"/>
</svg>
