<svg width="45" height="45" viewBox="0 0 45 45" fill="none" xmlns="http://www.w3.org/2000/svg">
<g clip-path="url(#clip0_30_1942)">
<path d="M15.6675 9.375H13.1438L9.375 24.375H11.3025L12.1725 20.8594H16.515L17.3625 24.375H19.3537L15.6675 9.375ZM12.4256 19.3537L14.3325 11.1562H14.4169L16.2619 19.3556L12.4256 19.3537ZM21.0712 24.375V9.375H22.9462V24.375H21.0712ZM21.4219 26.25H7.5V7.5H26.25V16.4625C28.4689 15.0287 31.1535 14.5012 33.75 14.9887V11.25H30V7.5C29.997 6.50635 29.601 5.55425 28.8984 4.85163C28.1958 4.14901 27.2436 3.75297 26.25 3.75H22.5V0H18.75V3.75H15V0H11.25V3.75H7.5C6.50635 3.75297 5.55425 4.14901 4.85163 4.85163C4.14901 5.55425 3.75297 6.50635 3.75 7.5V11.25H0V15H3.75V18.75H0V22.5H3.75V26.25C3.75297 27.2436 4.14901 28.1958 4.85163 28.8984C5.55425 29.601 6.50635 29.997 7.5 30H11.25V33.75H15V30H18.75V33.75H22.5V30.015C21.9077 28.8387 21.542 27.5615 21.4219 26.25ZM25.3125 25.3125C25.3125 24.0146 25.6974 22.7458 26.4185 21.6666C27.1396 20.5874 28.1645 19.7462 29.3636 19.2495C30.5628 18.7528 31.8823 18.6229 33.1553 18.8761C34.4283 19.1293 35.5976 19.7543 36.5154 20.6721C37.4332 21.5899 38.0582 22.7592 38.3114 24.0322C38.5646 25.3052 38.4347 26.6247 37.938 27.8239C37.4413 29.023 36.6001 30.0479 35.5209 30.769C34.4417 31.4901 33.1729 31.875 31.875 31.875C30.1345 31.875 28.4653 31.1836 27.2346 29.9529C26.0039 28.7222 25.3125 27.053 25.3125 25.3125ZM31.875 35.625C27.495 35.625 18.75 37.8244 18.75 42.1875V45H45V42.1875C45 37.8225 36.255 35.625 31.875 35.625Z" fill="#EDEDED"/>
</g>
<defs>
<clipPath id="clip0_30_1942">
<rect width="45" height="45" fill="white"/>
</clipPath>
</defs>
</svg>
