<svg width="44" height="44" viewBox="0 0 44 44" fill="none" xmlns="http://www.w3.org/2000/svg">
<g clip-path="url(#clip0_30_1938)">
<path d="M31.7221 17.4606L37.5558 23.2943C38.5024 24.2283 39.2549 25.3404 39.77 26.5664C40.2851 27.7925 40.5526 29.1083 40.557 30.4381C40.5615 31.768 40.3028 33.0856 39.796 34.315C39.2891 35.5445 38.5441 36.6616 37.6037 37.6019C36.6634 38.5423 35.5463 39.2873 34.3169 39.7942C33.0874 40.301 31.7698 40.5597 30.44 40.5552C29.1101 40.5507 27.7943 40.2833 26.5683 39.7682C25.3422 39.2531 24.2302 38.5006 23.2961 37.554L21.3528 35.6106C21.09 35.3571 20.8804 35.0537 20.7361 34.7183C20.5918 34.3829 20.5158 34.022 20.5125 33.6569C20.5091 33.2918 20.5785 32.9296 20.7166 32.5916C20.8548 32.2536 21.0588 31.9464 21.3169 31.6881C21.575 31.4298 21.8819 31.2254 22.2198 31.087C22.5577 30.9486 22.9198 30.8788 23.2849 30.8818C23.6501 30.8848 24.011 30.9605 24.3465 31.1045C24.6821 31.2484 24.9857 31.4578 25.2395 31.7203L27.1865 33.6655C28.0474 34.5187 29.2113 34.9961 30.4234 34.9933C31.6355 34.9905 32.7971 34.5076 33.6541 33.6504C34.511 32.7932 34.9935 31.6314 34.996 30.4193C34.9985 29.2073 34.5208 28.0435 33.6673 27.1828L27.8336 21.3491C27.2031 20.7183 26.4022 20.2852 25.5292 20.1028C24.6561 19.9205 23.7488 19.9968 22.9185 20.3225C22.6227 20.4398 22.3453 20.5596 22.0861 20.6818L21.2355 21.0797C20.0988 21.593 19.2243 21.813 18.1115 20.702C16.5128 19.1033 16.9271 17.6275 18.876 16.2836C20.8173 14.9478 23.1652 14.3341 25.5119 14.5491C27.8586 14.7641 30.0559 15.7943 31.7221 17.4606ZM20.7038 6.44231L22.6471 8.38565C23.1483 8.90407 23.4258 9.59859 23.4199 10.3196C23.414 11.0407 23.1251 11.7306 22.6155 12.2407C22.1058 12.7508 21.4162 13.0403 20.6952 13.0469C19.9742 13.0535 19.2794 12.7767 18.7605 12.276L16.8153 10.3326C16.3926 9.89478 15.887 9.54547 15.3279 9.3051C14.7688 9.06474 14.1674 8.93813 13.5588 8.93267C12.9502 8.92721 12.3467 9.04301 11.7833 9.2733C11.22 9.5036 10.7082 9.84378 10.2777 10.274C9.84723 10.7042 9.50676 11.2159 9.27614 11.7791C9.04553 12.3423 8.92939 12.9458 8.93451 13.5543C8.93962 14.1629 9.06589 14.7644 9.30594 15.3236C9.54599 15.8829 9.89501 16.3887 10.3326 16.8116L16.1663 22.6453C16.7968 23.2761 17.5977 23.7093 18.4708 23.8916C19.3439 24.074 20.2512 23.9977 21.0815 23.672C21.3773 23.5546 21.6547 23.4349 21.9138 23.3126L22.7645 22.9148C23.9011 22.4015 24.7775 22.1815 25.8885 23.2925C27.4871 24.8911 27.0728 26.367 25.124 27.7108C23.1826 29.0467 20.8348 29.6604 18.4881 29.4454C16.1413 29.2303 13.9441 28.2002 12.2778 26.5338L6.44414 20.7001C5.49752 19.7661 4.74501 18.6541 4.22993 17.428C3.71485 16.202 3.44738 14.8862 3.44293 13.5563C3.43847 12.2265 3.69712 10.9089 4.20397 9.67943C4.71082 8.44996 5.45587 7.33289 6.39621 6.39255C7.33656 5.45221 8.45362 4.70716 9.68309 4.20031C10.9126 3.69345 12.2301 3.43481 13.56 3.43927C14.8898 3.44372 16.2056 3.71119 17.4317 4.22627C18.6577 4.74134 19.7698 5.49569 20.7038 6.44231Z" fill="#EDEDED"/>
</g>
<defs>
<clipPath id="clip0_30_1938">
<rect width="44" height="44" fill="white"/>
</clipPath>
</defs>
</svg>
