<svg width="70" height="70" viewBox="0 0 70 70" fill="none" xmlns="http://www.w3.org/2000/svg">
<path d="M61.25 55.4166V58.3333H8.75V55.4166L14.5833 49.5833V32.0833C14.5833 23.0416 20.5042 15.0791 29.1667 12.5125V11.6666C29.1667 10.1196 29.7812 8.63582 30.8752 7.54186C31.9692 6.44789 33.4529 5.83331 35 5.83331C36.5471 5.83331 38.0308 6.44789 39.1248 7.54186C40.2188 8.63582 40.8333 10.1196 40.8333 11.6666V12.5125C49.4958 15.0791 55.4167 23.0416 55.4167 32.0833V49.5833L61.25 55.4166ZM40.8333 61.25C40.8333 62.7971 40.2188 64.2808 39.1248 65.3748C38.0308 66.4687 36.5471 67.0833 35 67.0833C33.4529 67.0833 31.9692 66.4687 30.8752 65.3748C29.7812 64.2808 29.1667 62.7971 29.1667 61.25" fill="white"/>
</svg>
